<svg xmlns="http://www.w3.org/2000/svg" width="28" height="30" viewBox="0 0 28 30">
  <metadata><?xpacket begin="﻿" id="W5M0MpCehiHzreSzNTczkc9d"?>
<x:xmpmeta xmlns:x="adobe:ns:meta/" x:xmptk="Adobe XMP Core 5.6-c142 79.160924, 2017/07/13-01:06:39        ">
   <rdf:RDF xmlns:rdf="http://www.w3.org/1999/02/22-rdf-syntax-ns#">
      <rdf:Description rdf:about=""/>
   </rdf:RDF>
</x:xmpmeta>
                                                                                                    
                                                                                                    
                                                                                                    
                                                                                                    
                                                                                                    
                                                                                                    
                                                                                                    
                                                                                                    
                                                                                                    
                                                                                                    
                                                                                                    
                                                                                                    
                                                                                                    
                                                                                                    
                                                                                                    
                                                                                                    
                                                                                                    
                                                                                                    
                                                                                                    
                                                                                                    
                           
<?xpacket end="w"?></metadata>
<defs>
    <style>
      .cls-1 {
        fill: #fe6f5f;
        fill-rule: evenodd;
      }
    </style>
  </defs>
  <path id="Forma_1" data-name="Forma 1" class="cls-1" d="M27.563,27.325l-6.9-7.426a12.328,12.328,0,0,0,2.746-7.787A11.928,11.928,0,0,0,11.7,0,11.928,11.928,0,0,0,0,12.113,11.928,11.928,0,0,0,11.7,24.225a11.315,11.315,0,0,0,6.706-2.192l6.953,7.482a1.491,1.491,0,0,0,2.159.044A1.621,1.621,0,0,0,27.563,27.325ZM11.7,3.16a8.816,8.816,0,0,1,8.652,8.952A8.816,8.816,0,0,1,11.7,21.065a8.816,8.816,0,0,1-8.652-8.953A8.816,8.816,0,0,1,11.7,3.16Z"/>
</svg>
